<svg xmlns="http://www.w3.org/2000/svg" xmlns:xlink="http://www.w3.org/1999/xlink" version="1.1" viewBox="31.98 32 40.53 40.58">
<g clip-path="url(#clip_0)">
<path transform="matrix(1,0,0,-1,63.8363,44.082304)" d="M0 0-3.012 3.012C-3.183 3.182-3.428 3.19-3.639 3.031-3.86 2.864-4.014 2.531-3.877 2.285-3.856 2.247-3.904 2.028-4.238 1.694-4.297 1.635-4.479 1.467-4.737 1.23-4.914 1.398-5.19 1.404-5.372 1.24L-5.868 .794C-5.963 .708-6.02 .585-6.023 .458-6.026 .348-5.983 .243-5.915 .157-6.075 .012-6.238-.136-6.404-.287-7.386-1.178-8.498-2.189-9.126-2.771-10.405-3.956-11.713-5.139-12.041-5.416L-12.159-5.298C-12.334-5.123-12.608-5.117-12.794-5.276-12.8-5.28-12.807-5.282-12.812-5.287L-12.883-5.353-13.299-5.742C-13.324-5.765-13.339-5.797-13.358-5.825-13.403-5.891-13.433-5.964-13.44-6.044-13.441-6.055-13.447-6.065-13.447-6.077-13.447-6.081-13.445-6.084-13.445-6.088-13.445-6.141-13.436-6.193-13.417-6.241-13.398-6.294-13.368-6.34-13.332-6.383-14.264-7.265-16.158-9.05-17.826-10.62L-17.842-10.604C-18.007-10.439-18.26-10.428-18.445-10.562-18.461-10.574-18.48-10.579-18.495-10.593L-18.947-11.016-18.981-11.048C-19.064-11.125-19.109-11.23-19.121-11.342-19.122-11.356-19.13-11.368-19.13-11.383-19.13-11.386-19.128-11.389-19.128-11.392-19.128-11.508-19.083-11.617-19.005-11.703-19.001-11.708-18.999-11.715-18.994-11.72-19.789-12.469-20.434-13.075-20.749-13.37-20.753-13.366-20.758-13.365-20.763-13.361-20.838-13.294-20.929-13.258-21.023-13.248-21.04-13.246-21.055-13.238-21.072-13.238-21.096-13.238-21.118-13.248-21.141-13.252-21.178-13.258-21.215-13.259-21.249-13.274-21.306-13.297-21.359-13.331-21.404-13.376L-21.875-13.847C-21.898-13.87-21.909-13.898-21.926-13.924-22.046-14.107-22.035-14.35-21.874-14.511L-21.711-14.674C-21.775-15.077-21.778-15.638-21.514-16.26-21.299-16.77-20.989-17.089-20.976-17.102-20.998-17.126-21.026-17.149-21.04-17.153-21.116-17.153-21.174-17.131-21.241-17.105-21.393-17.048-21.622-16.96-21.91-17.248-22.299-17.637-22.097-18.193-21.745-18.545L-21.556-18.734C-21.384-18.905-21.178-19.028-20.975-19.08-20.903-19.098-20.833-19.107-20.764-19.107-20.573-19.107-20.398-19.036-20.26-18.898-19.972-18.61-20.059-18.381-20.117-18.229-20.143-18.162-20.165-18.104-20.165-18.036-20.161-18.017-20.138-17.987-20.114-17.964-20.063-18.013-19.752-18.3-19.272-18.503-18.65-18.766-18.088-18.764-17.685-18.7L-17.523-18.863C-17.501-18.884-17.474-18.895-17.45-18.911-17.281-19.026-17.061-19.02-16.9-18.89-16.886-18.88-16.87-18.875-16.858-18.863L-16.388-18.392C-16.343-18.347-16.308-18.294-16.285-18.237-16.268-18.196-16.264-18.151-16.259-18.107-16.258-18.091-16.25-18.076-16.25-18.06-16.25-18.044-16.258-18.03-16.259-18.014-16.269-17.917-16.306-17.822-16.376-17.745-16.379-17.743-16.379-17.739-16.382-17.737-16.087-17.423-15.481-16.778-14.732-15.982-14.709-16.005-14.68-16.017-14.654-16.034-14.608-16.064-14.561-16.085-14.509-16.097-14.474-16.105-14.439-16.118-14.403-16.118H-14.395C-14.381-16.118-14.368-16.111-14.354-16.109-14.243-16.097-14.137-16.052-14.06-15.969L-13.826-15.719-13.605-15.483C-13.431-15.297-13.436-15.01-13.616-14.83L-13.632-14.814C-12.062-13.146-10.277-11.253-9.395-10.321-9.394-10.321-9.393-10.322-9.392-10.322-9.35-10.357-9.305-10.387-9.254-10.405-9.205-10.424-9.152-10.436-9.098-10.436-9.095-10.436-9.092-10.435-9.089-10.435-8.985-10.434-8.891-10.391-8.811-10.328-8.793-10.313-8.77-10.304-8.754-10.287L-8.559-10.079-8.299-9.8C-8.287-9.788-8.283-9.773-8.274-9.76-8.134-9.577-8.142-9.323-8.305-9.154-8.307-9.152-8.308-9.15-8.31-9.148L-8.428-9.03C-8.15-8.701-6.967-7.392-5.782-6.114-5.199-5.485-4.186-4.37-3.293-3.386-3.144-3.222-2.998-3.061-2.855-2.903-2.772-2.969-2.673-3.012-2.568-3.012-2.564-3.012-2.559-3.012-2.555-3.011-2.426-3.008-2.303-2.952-2.218-2.856L-1.772-2.361C-1.608-2.178-1.614-1.902-1.782-1.725-1.545-1.467-1.377-1.285-1.318-1.226-.984-.893-.765-.844-.727-.865-.481-1.003-.148-.848 .019-.627 .178-.417 .171-.171 0 0M-16.72-18.06-17.19-18.531-21.542-14.179-21.072-13.708ZM-13.948-15.162-14.403-15.649-18.66-11.391-18.174-10.936ZM-8.642-9.48-9.097-9.966-12.978-6.085-12.491-5.63ZM-2.121-2.047-2.567-2.542-5.554 .445-5.059 .891H-5.058ZM-12.301-4.709C-12.244-4.659-12.178-4.6-12.105-4.535-12.653-4.039-13.343-3.408-14.031-2.771-14.658-2.189-15.771-1.178-16.753-.287-16.919-.136-17.082 .012-17.242 .157-17.174 .243-17.13 .348-17.134 .458-17.137 .585-17.193 .708-17.289 .794L-17.784 1.24C-17.967 1.404-18.242 1.398-18.42 1.23-18.678 1.467-18.86 1.635-18.919 1.694-19.253 2.028-19.301 2.247-19.28 2.285-19.143 2.531-19.297 2.864-19.518 3.031-19.729 3.19-19.974 3.182-20.145 3.012L-23.157 0C-23.327-.171-23.335-.417-23.176-.627-23.009-.848-22.676-1.003-22.43-.865-22.391-.844-22.172-.893-21.839-1.226-21.78-1.285-21.612-1.467-21.375-1.725-21.543-1.902-21.549-2.178-21.385-2.361L-20.939-2.856C-20.853-2.952-20.73-3.008-20.602-3.011-20.598-3.012-20.593-3.012-20.589-3.012-20.484-3.012-20.385-2.969-20.302-2.903-20.159-3.061-20.013-3.222-19.864-3.386-18.97-4.37-17.957-5.485-17.374-6.114-16.833-6.698-16.297-7.284-15.842-7.784-15.068-7.054-14.376-6.402-13.903-5.954-13.873-5.743-13.776-5.545-13.619-5.399L-13.133-4.944C-12.9-4.727-12.589-4.649-12.301-4.709M-17.603 .445-20.59-2.542-21.036-2.047-18.099 .891H-18.098ZM-11.095-13.147C-10.574-13.7-10.039-14.268-9.525-14.814L-9.541-14.83C-9.721-15.01-9.726-15.297-9.552-15.483L-9.331-15.719-9.097-15.969C-9.02-16.052-8.914-16.097-8.803-16.109-8.789-16.111-8.776-16.118-8.762-16.118H-8.754C-8.718-16.118-8.683-16.105-8.648-16.097-8.596-16.085-8.548-16.064-8.503-16.034-8.477-16.017-8.447-16.005-8.425-15.982-7.676-16.778-7.069-17.423-6.775-17.737-6.777-17.739-6.778-17.743-6.78-17.745-6.851-17.822-6.888-17.917-6.898-18.014-6.899-18.03-6.907-18.044-6.907-18.06-6.907-18.076-6.899-18.091-6.897-18.107-6.893-18.151-6.889-18.196-6.872-18.237-6.848-18.294-6.814-18.347-6.769-18.392L-6.299-18.863C-6.286-18.875-6.27-18.88-6.257-18.89-6.096-19.02-5.876-19.026-5.707-18.911-5.683-18.895-5.656-18.884-5.634-18.863L-5.471-18.7C-5.069-18.764-4.507-18.766-3.885-18.503-3.405-18.3-3.094-18.013-3.043-17.964-3.019-17.987-2.996-18.017-2.992-18.036-2.992-18.104-3.014-18.162-3.04-18.229-3.097-18.381-3.185-18.61-2.897-18.898-2.759-19.036-2.584-19.107-2.392-19.107-2.324-19.107-2.254-19.098-2.182-19.08-1.979-19.028-1.772-18.905-1.601-18.734L-1.412-18.545C-1.06-18.193-.858-17.637-1.247-17.248-1.535-16.96-1.764-17.048-1.916-17.105-1.983-17.131-2.041-17.153-2.117-17.153-2.131-17.149-2.159-17.126-2.181-17.102-2.168-17.089-1.858-16.77-1.642-16.26-1.379-15.638-1.382-15.077-1.445-14.674L-1.282-14.511C-1.122-14.35-1.11-14.107-1.231-13.924-1.248-13.898-1.259-13.87-1.282-13.847L-1.753-13.376C-1.798-13.331-1.85-13.297-1.907-13.274-1.942-13.259-1.979-13.258-2.016-13.252-2.039-13.248-2.06-13.238-2.084-13.238H-2.085C-2.102-13.238-2.117-13.246-2.134-13.248-2.228-13.258-2.319-13.294-2.394-13.361-2.398-13.365-2.404-13.366-2.408-13.37-2.722-13.075-3.367-12.469-4.163-11.72-4.158-11.715-4.156-11.708-4.151-11.703-4.074-11.617-4.029-11.508-4.029-11.392-4.029-11.389-4.027-11.386-4.027-11.383-4.027-11.368-4.034-11.356-4.036-11.342-4.048-11.23-4.093-11.125-4.176-11.048L-4.21-11.016-4.662-10.593C-4.677-10.579-4.696-10.574-4.712-10.562-4.897-10.428-5.149-10.439-5.315-10.604L-5.331-10.62C-5.968-10.02-6.638-9.39-7.275-8.79-7.456-8.992-7.61-9.163-7.721-9.289-7.661-9.578-7.738-9.889-7.956-10.121L-8.411-10.607C-8.557-10.764-8.755-10.861-8.966-10.891-9.473-11.428-10.245-12.246-11.095-13.147M-6.437-18.06-2.085-13.708-1.614-14.179-5.966-18.531ZM-9.209-15.162-4.983-10.936-4.496-11.391-8.754-15.649Z" fill="#241f21"/>
<path transform="matrix(1,0,0,-1,72.4642,49.1428)" d="M0 0C-.084 .511-.286 .888-.583 1.09-.812 1.249-1.08 1.293-1.358 1.218-2.059 1.029-2.154 .311-2.159-.294-2.159-.294-2.158-.399-2.155-.411-2.155-1.236-2.352-1.356-2.539-1.404-2.636-1.432-2.725-1.416-2.811-1.355-2.993-1.232-3.133-.948-3.195-.576-3.274-.094-3.227 .241-3.055 .419-2.994 .48-2.969 .546-2.981 .616-2.983 .632-2.99 .673-3.019 .704L-3.143 .857C-3.212 .926-3.318 .936-3.404 .874-3.757 .56-3.876 .041-3.758-.669-3.669-1.211-3.452-1.611-3.133-1.825-2.979-1.932-2.809-1.986-2.633-1.986-2.553-1.986-2.471-1.975-2.389-1.952-1.599-1.739-1.591-.833-1.588-.445-1.588-.445-1.588-.356-1.587-.326-1.591 .497-1.395 .617-1.209 .665-1.094 .696-.996 .681-.905 .62-.739 .509-.616 .256-.559-.093-.503-.424-.486-.868-.713-1.095L-.732-1.121C-.756-1.167-.764-1.211-.756-1.256-.753-1.278-.746-1.318-.716-1.35L-.595-1.494C-.536-1.566-.424-1.583-.329-1.521 .004-1.202 .115-.691 0 0M-.458 2.223C-.439 2.25-.412 2.307-.447 2.392L-.525 2.585C-.559 2.669-.636 2.719-.737 2.723L-3.332 2.799-2.013 4.176C-1.964 4.219-1.948 4.298-1.974 4.359-2 4.424-2.058 4.464-2.129 4.467L-4.036 4.522-2.236 6.399C-2.148 6.507-2.166 6.6-2.185 6.646L-2.263 6.838C-2.298 6.923-2.357 6.946-2.389 6.951-2.474 6.966-2.539 6.903-2.549 6.892L-5.142 4.245C-5.198 4.203-5.218 4.123-5.189 4.055-5.168 4.002-5.122 3.965-5.062 3.949L-3.05 3.92-4.437 2.522C-4.497 2.479-4.509 2.392-4.485 2.331-4.464 2.279-4.418 2.242-4.358 2.226L-.617 2.154C-.615 2.154-.611 2.154-.607 2.154-.578 2.154-.503 2.161-.458 2.223M-3.676 8.585C-3.656 8.636-3.664 8.691-3.695 8.735-3.727 8.779-3.772 8.805-3.847 8.799L-7.62 8.135C-7.681 8.127-7.729 8.094-7.75 8.043-7.772 7.993-7.764 7.931-7.727 7.88L-7.578 7.675C-7.534 7.615-7.461 7.584-7.386 7.597L-6.69 7.712C-6.662 7.718-6.644 7.72-6.612 7.676L-5.596 6.283C-5.564 6.24-5.572 6.22-5.589 6.191L-5.912 5.556C-5.938 5.493-5.931 5.418-5.892 5.364L-5.739 5.154C-5.709 5.113-5.657 5.087-5.606 5.087-5.602 5.087-5.598 5.087-5.594 5.088-5.542 5.092-5.498 5.121-5.473 5.169L-3.681 8.572ZM-4.553 8.112-5.27 6.798-6.021 7.828ZM-5.824 10.462C-5.754 10.917-5.979 11.39-6.491 11.867-6.87 12.22-7.265 12.393-7.619 12.374-7.897 12.361-8.136 12.232-8.311 12.002-8.75 11.424-8.387 10.798-8.021 10.316-8.021 10.316-7.956 10.233-7.946 10.225-7.443 9.572-7.526 9.357-7.645 9.204-7.705 9.123-7.784 9.082-7.89 9.078-8.11 9.063-8.393 9.203-8.669 9.46-9.027 9.793-9.194 10.088-9.166 10.334-9.155 10.419-9.176 10.487-9.227 10.533-9.237 10.543-9.268 10.574-9.312 10.58L-9.504 10.626C-9.602 10.639-9.691 10.581-9.72 10.48-9.808 10.017-9.586 9.533-9.059 9.042-8.681 8.691-8.291 8.506-7.928 8.506-7.905 8.506-7.881 8.507-7.858 8.509-7.585 8.523-7.354 8.645-7.191 8.862-6.696 9.514-7.243 10.236-7.477 10.545-7.477 10.545-7.532 10.616-7.549 10.64-8.055 11.289-7.972 11.504-7.854 11.655-7.783 11.75-7.696 11.799-7.587 11.806-7.388 11.818-7.136 11.693-6.877 11.453-6.631 11.223-6.346 10.883-6.387 10.565L-6.389 10.548-6.386 10.532C-6.377 10.481-6.356 10.441-6.323 10.41-6.307 10.395-6.277 10.367-6.233 10.361L-6.05 10.321C-5.959 10.3-5.86 10.354-5.824 10.462M-9.706-16.139C-9.763-16.109-9.83-16.115-9.89-16.154L-10.068-16.271C-10.138-16.317-10.173-16.401-10.162-16.495L-9.792-19.324-12.249-17.868C-12.33-17.821-12.422-17.821-12.495-17.869L-12.673-17.986C-12.749-18.036-12.76-18.1-12.76-18.134-12.76-18.191-12.728-18.245-12.671-18.282L-9.393-20.217C-9.367-20.232-9.338-20.239-9.309-20.239-9.275-20.239-9.24-20.23-9.211-20.21-9.164-20.18-9.136-20.128-9.133-20.046L-9.618-16.284C-9.62-16.222-9.654-16.166-9.706-16.139M-10.254 14.363C-10.209 14.461-10.249 14.572-10.346 14.618L-10.512 14.695C-10.607 14.74-10.722 14.699-10.767 14.603L-11.831 12.323-12.393 15.419C-12.401 15.477-12.415 15.584-12.52 15.633L-12.718 15.725C-12.804 15.766-12.908 15.731-12.966 15.635L-14.397 12.57C-14.442 12.473-14.402 12.361-14.304 12.315L-14.139 12.238C-14.092 12.216-14.041 12.214-13.993 12.231-13.945 12.248-13.906 12.284-13.884 12.331L-12.822 14.605-12.263 11.505C-12.249 11.432-12.221 11.342-12.131 11.3L-11.938 11.21C-11.911 11.197-11.883 11.192-11.855 11.192-11.784 11.192-11.716 11.231-11.685 11.298ZM-14.573 14.972C-14.403 15.672-14.833 16.382-15.534 16.553L-16.909 16.888C-16.957 16.899-17.01 16.891-17.053 16.865-17.097 16.838-17.129 16.795-17.14 16.747L-17.941 13.465C-17.965 13.365-17.901 13.259-17.8 13.234L-17.623 13.191C-17.573 13.178-17.518 13.187-17.474 13.214-17.433 13.239-17.404 13.277-17.393 13.322L-17.165 14.259-16.255 14.031C-16.255 13.371-15.829 12.797-15.188 12.602-15.173 12.598-15.157 12.596-15.142 12.596-15.107 12.596-15.072 12.605-15.042 12.624-14.999 12.65-14.968 12.692-14.956 12.742L-14.913 12.919C-14.901 12.967-14.909 13.02-14.936 13.064-14.961 13.106-15.002 13.138-15.048 13.15-15.397 13.269-15.657 13.611-15.692 13.985-15.14 14.061-14.701 14.449-14.573 14.972M-15.129 15.107C-15.175 14.916-15.293 14.754-15.461 14.652-15.629 14.55-15.827 14.52-16.018 14.567L-17.029 14.814-16.674 16.248-15.668 16.002C-15.477 15.956-15.315 15.837-15.213 15.668-15.112 15.499-15.082 15.3-15.129 15.107M-18.803 13.822C-18.435 14.181-18.228 14.662-18.221 15.176-18.215 15.692-18.409 16.18-18.769 16.549-19.128 16.918-19.609 17.125-20.123 17.131-20.65 17.138-21.127 16.943-21.496 16.583-21.865 16.223-22.072 15.741-22.079 15.225-22.092 14.162-21.237 13.288-20.172 13.274-20.164 13.274-20.155 13.274-20.147 13.274-19.642 13.274-19.166 13.468-18.803 13.822M-18.788 15.183C-18.797 14.433-19.412 13.828-20.165 13.84-20.529 13.845-20.87 13.991-21.125 14.252-21.379 14.513-21.517 14.856-21.513 15.217-21.503 15.964-20.892 16.565-20.147 16.565-20.142 16.565-20.136 16.565-20.13 16.565-19.38 16.556-18.778 15.936-18.788 15.183M-21.939-19.601-22.12-19.571C-22.222-19.555-22.323-19.625-22.34-19.729L-22.751-22.211-24.126-19.381C-24.147-19.331-24.191-19.228-24.306-19.209L-24.521-19.173C-24.616-19.157-24.706-19.219-24.736-19.327L-25.289-22.664C-25.306-22.768-25.235-22.867-25.131-22.885L-24.95-22.915C-24.847-22.931-24.747-22.861-24.73-22.757L-24.319-20.28-22.947-23.115C-22.914-23.182-22.863-23.261-22.764-23.277L-22.554-23.312C-22.543-23.313-22.533-23.314-22.523-23.314-22.482-23.314-22.442-23.302-22.408-23.278-22.368-23.249-22.342-23.206-22.334-23.159L-21.781-19.822C-21.773-19.772-21.784-19.722-21.812-19.681-21.842-19.638-21.887-19.61-21.939-19.601M-22.516 14.299C-22.591 14.642-22.823 14.925-23.141 15.065-23.01 15.3-22.969 15.568-23.025 15.823-23.151 16.405-23.729 16.775-24.309 16.648L-25.915 16.298C-26.007 16.268-26.063 16.179-26.051 16.073L-25.329 12.756C-25.3 12.672-25.223 12.618-25.14 12.618-25.126 12.618-25.112 12.619-25.098 12.622L-23.344 13.004C-22.76 13.131-22.389 13.712-22.516 14.299M-23.971 15.097-25.196 14.831-25.412 15.824-24.187 16.09C-24.055 16.119-23.918 16.095-23.804 16.022-23.69 15.948-23.612 15.835-23.583 15.702-23.523 15.428-23.698 15.157-23.971 15.097M-23.142 13.788C-23.217 13.672-23.332 13.591-23.466 13.562L-24.854 13.26-25.075 14.273-23.686 14.575C-23.406 14.636-23.13 14.458-23.07 14.179-23.04 14.044-23.066 13.905-23.142 13.788M-25.706-19.297C-25.893-18.817-26.256-18.44-26.727-18.234-27.702-17.807-28.843-18.253-29.27-19.229-29.476-19.7-29.486-20.224-29.298-20.703-29.11-21.183-28.745-21.561-28.273-21.768-28.022-21.877-27.761-21.929-27.504-21.929-26.761-21.929-26.052-21.498-25.736-20.775-25.529-20.302-25.518-19.777-25.706-19.297M-26.255-20.548C-26.555-21.235-27.359-21.55-28.046-21.249-28.379-21.103-28.636-20.836-28.77-20.496-28.903-20.157-28.897-19.788-28.751-19.456-28.606-19.122-28.338-18.865-27.998-18.732-27.659-18.599-27.288-18.606-26.954-18.752-26.622-18.897-26.367-19.164-26.234-19.504-26.102-19.844-26.109-20.214-26.255-20.548M-27.148 12.01-27.233 12.171C-27.283 12.264-27.399 12.3-27.492 12.251L-28.989 11.445-29.482 12.379-27.978 13.172C-27.886 13.221-27.849 13.339-27.898 13.431L-27.983 13.593C-28.017 13.657-28.065 13.682-28.1 13.691-28.172 13.711-28.236 13.677-28.242 13.673L-29.742 12.871-30.235 13.776-28.719 14.576C-28.627 14.624-28.591 14.743-28.639 14.835L-28.724 14.996C-28.748 15.042-28.788 15.076-28.837 15.091-28.885 15.105-28.938 15.1-28.983 15.077L-30.818 14.109C-30.865 14.084-30.898 14.044-30.913 13.996-30.928 13.948-30.923 13.896-30.898 13.85L-29.322 10.862C-29.287 10.797-29.222 10.759-29.153 10.759-29.123 10.759-29.092 10.767-29.063 10.782L-27.228 11.75C-27.136 11.799-27.099 11.918-27.148 12.01M-29.974 10.813-31.347 9.76-33.177 12.148C-33.242 12.232-33.353 12.248-33.435 12.185L-33.604 12.056C-33.64 12.028-33.664 11.987-33.67 11.941-33.676 11.892-33.662 11.841-33.63 11.8L-31.572 9.115C-31.535 9.067-31.477 9.041-31.419 9.041-31.378 9.041-31.337 9.054-31.303 9.08L-29.625 10.367C-29.543 10.43-29.529 10.549-29.594 10.633L-29.704 10.777C-29.736 10.819-29.782 10.846-29.831 10.853-29.881 10.86-29.932 10.845-29.974 10.813M-34.159 10.752C-34.125 10.79-34.107 10.841-34.11 10.891-34.113 10.942-34.136 10.989-34.175 11.024L-34.312 11.145C-34.384 11.209-34.497 11.206-34.574 11.137L-36.359 9.125C-36.421 9.039-36.411 8.929-36.337 8.862L-36.2 8.742C-36.118 8.669-36.002 8.676-35.929 8.757L-35.242 9.553-32.989 7.553C-32.952 7.52-32.905 7.502-32.857 7.502-32.853 7.502-32.849 7.502-32.845 7.502-32.795 7.505-32.748 7.528-32.715 7.566L-32.593 7.703C-32.528 7.776-32.532 7.889-32.61 7.974L-34.856 9.967ZM-36.456 8.346-36.611 8.443C-36.695 8.495-36.805 8.472-36.869 8.391L-38.293 6.11C-38.34 6.015-38.312 5.908-38.227 5.855L-38.072 5.758C-37.98 5.7-37.866 5.726-37.808 5.819L-37.264 6.718-34.708 5.123C-34.674 5.102-34.637 5.092-34.601 5.092-34.537 5.092-34.476 5.123-34.44 5.181L-34.343 5.336C-34.291 5.419-34.313 5.53-34.404 5.601L-36.952 7.191-36.395 8.082C-36.339 8.172-36.367 8.29-36.456 8.346M-35.121 4.706-38.951 4.35-38.965 4.348C-39.019 4.336-39.061 4.3-39.081 4.248-39.099 4.198-39.092 4.143-39.052 4.088L-36.436 1.289C-36.402 1.249-36.358 1.228-36.312 1.228-36.304 1.228-36.296 1.228-36.287 1.23-36.233 1.239-36.185 1.28-36.163 1.339L-36.073 1.576C-36.046 1.645-36.062 1.723-36.112 1.778L-36.588 2.299C-36.609 2.319-36.62 2.333-36.601 2.384L-35.988 3.996C-35.969 4.045-35.948 4.05-35.915 4.052L-35.206 4.128C-35.138 4.14-35.08 4.188-35.056 4.249L-34.965 4.49C-34.945 4.542-34.953 4.604-34.987 4.648-35.018 4.69-35.072 4.712-35.121 4.706M-36.597 3.987-37.051 2.796-38.09 3.871ZM-38.947 1.31C-39.23 1.357-39.517 1.29-39.751 1.122-39.986 .955-40.141 .706-40.188 .421L-40.456-1.201C-40.461-1.297-40.4-1.382-40.297-1.41L-36.948-1.965C-36.944-1.965-36.941-1.965-36.937-1.965-36.839-1.965-36.754-1.896-36.738-1.8L-36.445-.029C-36.397 .255-36.465 .542-36.635 .779-36.805 1.015-37.056 1.171-37.342 1.219-37.688 1.276-38.037 1.165-38.285 .922-38.455 1.13-38.689 1.267-38.947 1.31M-38.263-1.168-38.031 .234C-38.008 .368-37.934 .488-37.821 .569-37.708 .65-37.571 .683-37.435 .66-37.299 .637-37.179 .562-37.099 .449-37.018 .336-36.986 .199-37.008 .064L-37.241-1.338ZM-39.04 .746C-38.764 .7-38.576 .438-38.622 .162L-38.827-1.075-39.829-.909-39.624 .328C-39.602 .462-39.529 .58-39.419 .658-39.309 .737-39.173 .768-39.04 .746M-39.359-9.495-38.995-10.387C-38.698-11.115-37.993-11.557-37.252-11.557-37.015-11.557-36.775-11.512-36.543-11.417-36.078-11.227-35.715-10.867-35.521-10.404-35.326-9.94-35.323-9.429-35.513-8.965L-35.877-8.073C-35.914-7.982-36.016-7.935-36.128-7.967L-39.265-9.25C-39.355-9.299-39.396-9.405-39.359-9.495M-36.258-8.638-36.037-9.179C-35.905-9.502-35.907-9.859-36.044-10.184-36.18-10.509-36.433-10.761-36.757-10.893-37.428-11.167-38.197-10.844-38.471-10.173L-38.691-9.632ZM-37.99-12.66C-38.014-12.709-38.009-12.772-37.974-12.825L-37.835-13.036C-37.794-13.099-37.723-13.133-37.647-13.123L-36.947-13.042C-36.918-13.037-36.9-13.036-36.87-13.082L-35.922-14.522C-35.893-14.566-35.902-14.586-35.92-14.614L-36.273-15.234C-36.302-15.296-36.298-15.371-36.262-15.426L-36.12-15.641C-36.091-15.687-36.037-15.716-35.983-15.716H-35.979C-35.926-15.715-35.88-15.687-35.853-15.641L-33.9-12.327-33.894-12.315C-33.872-12.264-33.877-12.209-33.907-12.163-33.936-12.118-33.995-12.089-34.054-12.092L-37.855-12.574C-37.917-12.579-37.966-12.611-37.99-12.66M-36.273-12.958-34.793-12.745-35.572-14.023ZM-34.886-16.741C-34.96-16.814-34.962-16.938-34.889-17.012L-34.762-17.143C-34.725-17.181-34.676-17.2-34.625-17.2-34.578-17.2-34.53-17.184-34.487-17.15L-33.406-16.094C-33.356-16.046-33.319-16.021-33.288-16.017L-31.297-15.686C-31.242-15.679-31.176-15.647-31.153-15.579-31.139-15.537-31.138-15.471-31.213-15.393L-31.369-15.233C-31.407-15.195-31.475-15.152-31.59-15.166L-33.118-15.412-32.832-13.874C-32.825-13.792-32.848-13.719-32.896-13.67L-33.055-13.507C-33.105-13.456-33.171-13.436-33.232-13.452-33.289-13.468-33.334-13.515-33.35-13.581L-33.718-15.548C-33.729-15.605-33.73-15.612-33.801-15.682ZM-32.003-19.337C-32.035-19.381-32.046-19.435-32.037-19.486-32.028-19.536-32-19.579-31.958-19.608L-31.808-19.711C-31.777-19.733-31.742-19.744-31.705-19.744-31.647-19.744-31.587-19.717-31.541-19.663L-29.83-17.195-28.967-17.793C-28.924-17.823-28.871-17.834-28.822-17.825-28.772-17.816-28.729-17.787-28.7-17.745L-28.596-17.595C-28.54-17.515-28.556-17.403-28.635-17.335L-30.845-15.803C-30.937-15.752-31.046-15.774-31.103-15.857L-31.207-16.007C-31.269-16.097-31.249-16.211-31.159-16.274L-30.287-16.861ZM-19.203-19.932-18.651-23.269C-18.642-23.32-18.615-23.364-18.574-23.394-18.541-23.418-18.501-23.43-18.461-23.43-18.451-23.43-18.44-23.429-18.43-23.428L-18.25-23.398C-18.197-23.389-18.152-23.361-18.123-23.318-18.095-23.276-18.084-23.226-18.092-23.177L-18.502-20.7-16.289-22.942C-16.235-22.994-16.161-23.052-16.063-23.036L-15.853-23.001C-15.749-22.983-15.678-22.887-15.694-22.785L-16.247-19.448C-16.256-19.398-16.284-19.352-16.325-19.323-16.367-19.293-16.417-19.282-16.468-19.29L-16.648-19.32C-16.699-19.328-16.743-19.356-16.773-19.397-16.802-19.438-16.814-19.491-16.806-19.54L-16.395-22.023-18.608-19.787C-18.645-19.747-18.719-19.662-18.834-19.682L-19.049-19.718C-19.143-19.733-19.21-19.82-19.203-19.932M-15.381-19.105C-15.4-19.151-15.4-19.204-15.38-19.253L-14.103-22.38C-14.072-22.454-14-22.499-13.924-22.499-13.9-22.499-13.876-22.494-13.852-22.485L-11.932-21.7C-11.836-21.661-11.788-21.546-11.827-21.45L-11.896-21.281C-11.916-21.232-11.954-21.194-12.002-21.175-12.049-21.157-12.1-21.157-12.146-21.176L-13.714-21.832-14.114-20.855-12.54-20.212C-12.494-20.193-12.456-20.155-12.437-20.108-12.417-20.061-12.416-20.007-12.435-19.962L-12.504-19.793C-12.531-19.726-12.577-19.696-12.61-19.684-12.682-19.656-12.748-19.684-12.754-19.688L-14.324-20.339-14.727-19.391-13.141-18.742C-13.045-18.703-12.997-18.589-13.036-18.492L-13.105-18.323C-13.124-18.275-13.161-18.238-13.208-18.219-13.254-18.199-13.308-18.199-13.355-18.218L-15.275-19.003C-15.323-19.022-15.361-19.059-15.381-19.105M-8.739-15.046C-8.778-15.084-8.795-15.137-8.781-15.205L-7.585-18.844C-7.568-18.904-7.528-18.947-7.475-18.961-7.463-18.964-7.45-18.966-7.437-18.966-7.395-18.966-7.351-18.948-7.316-18.914L-7.135-18.737C-7.082-18.685-7.063-18.608-7.086-18.536L-7.298-17.864C-7.309-17.837-7.313-17.819-7.274-17.781L-6.041-16.577C-6.003-16.54-5.981-16.544-5.951-16.557L-5.275-16.786C-5.209-16.803-5.136-16.785-5.089-16.739L-4.903-16.558C-4.864-16.519-4.846-16.459-4.858-16.405-4.869-16.353-4.905-16.314-4.956-16.297L-8.58-15.009-8.594-15.005C-8.647-14.994-8.701-15.009-8.739-15.046M-7.51-17.219-8-15.806-6.597-16.328ZM-7.142-13.674-4.311-15.537C-4.279-15.553-4.246-15.561-4.214-15.561-4.151-15.561-4.09-15.531-4.055-15.477L-3.525-14.672C-2.955-13.805-3.196-12.637-4.062-12.067-4.481-11.791-4.982-11.695-5.475-11.796-5.968-11.898-6.391-12.185-6.667-12.604L-7.196-13.409C-7.25-13.49-7.231-13.602-7.142-13.674M-4.373-12.54C-4.081-12.732-3.881-13.028-3.81-13.373-3.739-13.718-3.806-14.068-3.998-14.36L-4.319-14.848-6.515-13.403-6.194-12.915C-6.002-12.623-5.706-12.423-5.361-12.352-5.016-12.281-4.665-12.347-4.373-12.54M-4.849-9.38-2.303-12.242C-2.269-12.284-2.224-12.307-2.177-12.307-2.17-12.307-2.163-12.306-2.156-12.305-2.102-12.297-2.053-12.258-2.029-12.199L-1.933-11.965C-1.905-11.895-1.918-11.817-1.967-11.761L-2.43-11.229C-2.451-11.208-2.462-11.194-2.441-11.143L-1.789-9.547C-1.769-9.498-1.747-9.494-1.714-9.493L-1.003-9.435C-.935-9.423-.876-9.377-.851-9.317L-.754-9.078C-.732-9.027-.739-8.964-.772-8.919-.803-8.877-.852-8.854-.905-8.858L-4.743-9.12-4.757-9.122C-4.811-9.133-4.854-9.168-4.874-9.218-4.894-9.268-4.888-9.323-4.849-9.38M-2.881-10.721-3.893-9.62-2.398-9.541Z" fill="#241f21"/>
</g>
</svg>