<svg xmlns="http://www.w3.org/2000/svg" xmlns:xlink="http://www.w3.org/1999/xlink" version="1.1" viewBox="32 32 98.4 31.52">
<g clip-path="url(#clip_0)">
<path transform="matrix(1,0,0,-1,130.356,62.986604)" d="M0 0-2.507 5.11-2.517 5.128C-2.607 5.265-2.812 5.283-2.923 5.11L-5.419 .021C-5.462-.059-5.463-.146-5.422-.216-5.38-.285-5.299-.33-5.206-.33H-4.831C-4.72-.33-4.621-.268-4.571-.169L-4.102 .763C-4.084 .803-4.071 .825-3.99 .825H-1.439C-1.36 .825-1.343 .798-1.323 .753L-.845-.187C-.792-.274-.696-.33-.598-.33H-.216C-.133-.33-.052-.285-.009-.216 .032-.149 .035-.071 0 0M-3.658 1.665-2.716 3.666-1.771 1.664ZM-6.19 2.453C-6.19 3.987-7.439 5.236-8.973 5.236H-10.399C-10.544 5.236-10.665 5.121-10.683 4.952L-10.682-.063C-10.665-.215-10.544-.33-10.399-.33H-8.973C-7.439-.33-6.19 .918-6.19 2.453M-8.973 .508H-9.837V4.398H-8.973C-7.901 4.398-7.028 3.525-7.028 2.453-7.028 1.38-7.901 .508-8.973 .508M-11.843-.216C-11.802-.149-11.799-.071-11.834 0L-14.341 5.11-14.351 5.128C-14.441 5.265-14.646 5.283-14.757 5.11L-17.252 .021C-17.296-.059-17.298-.145-17.256-.215-17.215-.285-17.133-.33-17.04-.33H-16.665C-16.555-.33-16.455-.268-16.405-.169L-15.936 .762C-15.919 .802-15.905 .825-15.824 .825H-13.273C-13.195 .825-13.177 .798-13.157 .753L-12.679-.186C-12.627-.274-12.531-.33-12.433-.33H-12.05C-11.967-.33-11.886-.285-11.843-.216M-15.492 1.665-14.551 3.666-13.605 1.664ZM-17.238 4.854C-17.189 4.932-17.186 5.028-17.229 5.106-17.274 5.188-17.362 5.236-17.468 5.236H-17.783C-17.907 5.236-18.019 5.161-18.081 5.035L-19.926 1.238-21.778 5.037C-21.841 5.163-21.953 5.236-22.083 5.236H-22.398C-22.533 5.236-22.599 5.165-22.626 5.123-22.672 5.052-22.677 4.959-22.636 4.868L-20.16-.191C-20.118-.274-20.026-.33-19.929-.33-19.846-.33-19.77-.289-19.699-.19ZM-23.548-.046V.224C-23.548 .38-23.675 .508-23.832 .508L-26.347 .486V2.049H-23.832C-23.678 2.049-23.548 2.179-23.548 2.333V2.603C-23.548 2.71-23.594 2.775-23.632 2.812-23.715 2.89-23.819 2.887-23.831 2.887L-26.347 2.873-26.368 4.398H-23.832C-23.678 4.398-23.548 4.528-23.548 4.681V4.952C-23.548 5.108-23.675 5.236-23.832 5.236H-26.901C-27.063 5.236-27.185 5.113-27.185 4.952V-.046C-27.185-.203-27.058-.33-26.901-.33H-23.832C-23.678-.33-23.548-.2-23.548-.046M-29.086-.054V4.952C-29.086 5.108-29.213 5.236-29.37 5.236H-29.64C-29.797 5.236-29.924 5.108-29.924 4.952V1.229L-32.615 5.028C-32.661 5.101-32.747 5.236-32.92 5.236H-33.242C-33.383 5.236-33.502 5.124-33.519 4.959V-.046C-33.519-.203-33.391-.33-33.235-.33H-32.965C-32.808-.33-32.681-.203-32.681-.046V3.669L-29.992-.139C-29.927-.228-29.833-.33-29.685-.33H-29.37C-29.213-.33-29.086-.206-29.086-.054M-65.728-.054V4.952C-65.728 5.108-65.855 5.236-66.012 5.236H-66.282C-66.439 5.236-66.566 5.108-66.566 4.952V1.228L-69.257 5.028C-69.303 5.101-69.389 5.236-69.561 5.236H-69.884C-70.025 5.236-70.144 5.124-70.161 4.959V-.046C-70.161-.203-70.033-.33-69.877-.33H-69.607C-69.45-.33-69.323-.203-69.323-.046V3.669L-66.634-.139C-66.569-.228-66.475-.33-66.327-.33H-66.012C-65.855-.33-65.728-.206-65.728-.054M-71.492 2.46C-71.492 4.036-72.77 5.318-74.342 5.318-75.918 5.318-77.2 4.036-77.2 2.46-77.2 .889-75.918-.39-74.342-.39-72.77-.39-71.492 .889-71.492 2.46M-74.342 .448C-75.456 .448-76.362 1.351-76.362 2.46-76.362 3.574-75.456 4.48-74.342 4.48-73.232 4.48-72.33 3.574-72.33 2.46-72.33 1.351-73.232 .448-74.342 .448M-77.773 4.681V4.952C-77.773 5.096-77.887 5.218-78.038 5.235L-78.047 5.236-82.02 5.235C-82.175 5.219-82.288 5.1-82.288 4.952V4.681C-82.288 4.52-82.166 4.398-82.004 4.398L-80.449 4.419V-.039C-80.449-.202-80.324-.33-80.165-.33H-79.895C-79.75-.33-79.628-.215-79.611-.046V4.398H-78.056C-77.9 4.398-77.773 4.525-77.773 4.681M-83.161 4.844C-83.113 4.909-83.078 5.013-83.126 5.107-83.156 5.166-83.225 5.236-83.384 5.236H-83.715C-83.827 5.236-83.932 5.179-84.015 5.072L-85.333 3.199-86.666 5.092C-86.747 5.185-86.847 5.236-86.949 5.236H-87.287C-87.393 5.236-87.48 5.188-87.526 5.106-87.569 5.028-87.566 4.932-87.512 4.847L-85.81 2.424C-85.76 2.352-85.755 2.345-85.755 2.198V-.046C-85.755-.2-85.624-.33-85.471-.33H-85.201C-85.052-.33-84.927-.216-84.909-.046V2.19C-84.909 2.293-84.898 2.357-84.87 2.393ZM-87.673-.215C-87.632-.149-87.629-.07-87.664 0L-90.171 5.11-90.181 5.128C-90.271 5.265-90.476 5.283-90.587 5.11L-93.082 .021C-93.126-.059-93.128-.145-93.086-.215-93.045-.285-92.963-.33-92.87-.33H-92.495C-92.384-.33-92.285-.268-92.235-.169L-91.766 .762C-91.749 .802-91.735 .825-91.654 .825H-89.103C-89.025 .825-89.007 .798-88.987 .753L-88.509-.186C-88.457-.274-88.36-.33-88.262-.33H-87.879C-87.797-.33-87.716-.285-87.673-.215M-91.322 1.665-90.38 3.666-89.435 1.664ZM-93.854 2.453C-93.854 3.987-95.103 5.236-96.637 5.236H-98.063C-98.207 5.236-98.329 5.121-98.347 4.952L-98.346-.064C-98.329-.216-98.207-.33-98.063-.33H-96.637C-95.103-.33-93.854 .918-93.854 2.453M-96.637 .508H-97.502V4.398H-96.637C-95.565 4.398-94.692 3.525-94.692 2.453-94.692 1.38-95.565 .508-96.637 .508" fill="#231f20"/>
<path transform="matrix(1,0,0,-1,92.7746,44.3981)" d="M0 0-3.012 3.012C-3.183 3.183-3.429 3.19-3.64 3.031-3.861 2.864-4.015 2.531-3.878 2.285-3.857 2.247-3.905 2.028-4.239 1.694-4.298 1.635-4.479 1.467-4.738 1.23-4.915 1.398-5.191 1.404-5.373 1.24L-5.869 .794C-5.964 .708-6.021 .585-6.024 .458-6.027 .348-5.984 .243-5.916 .157-6.076 .012-6.239-.136-6.405-.287-7.387-1.178-8.5-2.189-9.127-2.771-10.406-3.957-11.715-5.139-12.043-5.417L-12.161-5.299V-5.298C-12.336-5.124-12.61-5.118-12.796-5.276-12.801-5.281-12.808-5.283-12.814-5.288L-12.885-5.354-13.301-5.743C-13.326-5.766-13.34-5.797-13.359-5.826-13.404-5.891-13.435-5.964-13.442-6.045-13.443-6.056-13.449-6.066-13.449-6.077V-6.078C-13.449-6.082-13.447-6.085-13.447-6.089-13.446-6.142-13.438-6.194-13.419-6.242-13.4-6.294-13.37-6.341-13.334-6.384-14.266-7.266-16.16-9.051-17.828-10.622L-17.844-10.606C-18.01-10.44-18.263-10.43-18.447-10.563-18.463-10.575-18.482-10.581-18.497-10.595L-18.95-11.018-18.983-11.049H-18.984C-19.066-11.126-19.111-11.232-19.123-11.343-19.125-11.357-19.132-11.37-19.133-11.384-19.133-11.387-19.131-11.39-19.131-11.394-19.13-11.509-19.086-11.619-19.008-11.705-19.003-11.71-19.002-11.717-18.997-11.722-19.792-12.471-20.437-13.077-20.751-13.372-20.755-13.368-20.761-13.366-20.765-13.362-20.841-13.296-20.932-13.26-21.026-13.25-21.043-13.248-21.058-13.24-21.075-13.24-21.099-13.24-21.121-13.25-21.144-13.254-21.18-13.259-21.218-13.261-21.252-13.275-21.309-13.299-21.362-13.333-21.406-13.378L-21.878-13.848C-21.9-13.871-21.912-13.9-21.929-13.926-22.049-14.108-22.038-14.352-21.877-14.513L-21.714-14.676C-21.778-15.079-21.78-15.64-21.517-16.262-21.302-16.772-20.992-17.091-20.979-17.104-21.001-17.129-21.029-17.151-21.042-17.155-21.118-17.155-21.176-17.133-21.244-17.108-21.395-17.05-21.625-16.962-21.913-17.25-22.302-17.639-22.1-18.195-21.747-18.548L-21.559-18.736C-21.387-18.908-21.181-19.031-20.978-19.082-20.906-19.101-20.836-19.11-20.767-19.11-20.575-19.11-20.401-19.038-20.263-18.9-19.975-18.613-20.062-18.383-20.12-18.231-20.145-18.164-20.167-18.106-20.168-18.038-20.164-18.02-20.141-17.99-20.116-17.967-20.065-18.016-19.754-18.302-19.275-18.505-18.652-18.769-18.091-18.766-17.688-18.702L-17.525-18.865C-17.503-18.887-17.476-18.897-17.452-18.913-17.283-19.028-17.063-19.022-16.902-18.893-16.889-18.882-16.873-18.877-16.86-18.865L-16.39-18.394C-16.345-18.35-16.311-18.297-16.287-18.24-16.27-18.198-16.266-18.153-16.262-18.109-16.26-18.093-16.252-18.079-16.252-18.062-16.252-18.046-16.26-18.032-16.261-18.017-16.271-17.919-16.308-17.825-16.379-17.747-16.381-17.745-16.382-17.742-16.384-17.739-16.089-17.425-15.483-16.78-14.734-15.985-14.711-16.007-14.682-16.019-14.656-16.036-14.61-16.066-14.563-16.087-14.511-16.099-14.475-16.108-14.441-16.12-14.405-16.12H-14.396C-14.383-16.12-14.37-16.113-14.356-16.111-14.245-16.099-14.139-16.054-14.062-15.971L-13.827-15.721-13.607-15.485C-13.433-15.299-13.438-15.012-13.618-14.832L-13.634-14.816C-12.063-13.148-10.278-11.254-9.396-10.322-9.395-10.323-9.394-10.323-9.393-10.324-9.351-10.358-9.306-10.388-9.255-10.406-9.206-10.426-9.153-10.437-9.099-10.437-9.096-10.437-9.093-10.437-9.09-10.437-8.987-10.435-8.892-10.392-8.812-10.329-8.794-10.314-8.771-10.306-8.755-10.288L-8.56-10.08-8.3-9.802C-8.289-9.79-8.284-9.774-8.275-9.762-8.135-9.578-8.143-9.324-8.306-9.155-8.308-9.153-8.309-9.151-8.311-9.149L-8.429-9.031C-8.151-8.702-6.968-7.393-5.783-6.115-5.2-5.486-4.187-4.37-3.293-3.386-3.144-3.222-2.999-3.062-2.855-2.904-2.773-2.969-2.673-3.012-2.569-3.012-2.564-3.012-2.559-3.012-2.555-3.012-2.427-3.008-2.304-2.952-2.218-2.857L-1.772-2.361C-1.608-2.179-1.614-1.903-1.782-1.725-1.545-1.467-1.377-1.285-1.318-1.226-.984-.893-.766-.844-.727-.866-.481-1.003-.148-.848 .019-.627 .178-.417 .171-.171 0 0M-16.722-18.062-17.193-18.533-21.545-14.18-21.075-13.71ZM-13.95-15.164-14.405-15.651-18.663-11.392-18.177-10.937ZM-8.643-9.481-9.098-9.967-12.98-6.086-12.493-5.631ZM-2.121-2.047-2.567-2.542-5.554 .445-5.059 .891ZM-12.302-4.709C-12.246-4.66-12.18-4.601-12.107-4.535-12.654-4.04-13.345-3.408-14.033-2.771-14.66-2.189-15.773-1.178-16.755-.287-16.921-.136-17.084 .012-17.244 .157-17.176 .243-17.133 .348-17.136 .458-17.139 .585-17.196 .708-17.291 .794L-17.787 1.24C-17.969 1.404-18.245 1.398-18.422 1.23-18.68 1.467-18.862 1.635-18.921 1.694-19.255 2.028-19.303 2.247-19.282 2.285-19.145 2.531-19.299 2.864-19.52 3.031-19.731 3.19-19.977 3.183-20.148 3.012L-23.16 0C-23.331-.171-23.338-.417-23.179-.627-23.012-.848-22.679-1.003-22.433-.866-22.394-.844-22.175-.893-21.842-1.226-21.783-1.285-21.615-1.467-21.378-1.725-21.546-1.903-21.552-2.179-21.388-2.361L-20.942-2.857C-20.856-2.952-20.733-3.008-20.605-3.012-20.6-3.012-20.596-3.012-20.591-3.012-20.486-3.012-20.387-2.969-20.305-2.904-20.161-3.062-20.015-3.222-19.867-3.386-18.973-4.37-17.96-5.486-17.377-6.115-16.835-6.699-16.299-7.285-15.844-7.785-15.07-7.055-14.378-6.402-13.905-5.955-13.875-5.744-13.778-5.546-13.621-5.399L-13.134-4.945C-12.902-4.727-12.591-4.65-12.302-4.709M-17.606 .445-20.593-2.542-21.039-2.047-18.101 .891ZM-11.096-13.149C-10.575-13.702-10.04-14.27-9.526-14.816L-9.542-14.832C-9.722-15.012-9.727-15.299-9.553-15.485L-9.332-15.721-9.098-15.971C-9.021-16.054-8.915-16.099-8.804-16.111-8.79-16.113-8.777-16.12-8.763-16.12H-8.755C-8.719-16.12-8.684-16.108-8.649-16.099-8.597-16.087-8.55-16.066-8.504-16.036-8.478-16.019-8.448-16.007-8.426-15.985-7.677-16.78-7.07-17.425-6.776-17.739-6.778-17.742-6.779-17.745-6.781-17.747-6.852-17.825-6.889-17.919-6.899-18.017-6.9-18.032-6.908-18.046-6.908-18.062-6.908-18.079-6.9-18.093-6.898-18.109-6.894-18.153-6.89-18.198-6.873-18.24-6.849-18.297-6.815-18.35-6.77-18.394L-6.299-18.865C-6.287-18.877-6.271-18.882-6.258-18.893-6.097-19.022-5.877-19.028-5.708-18.913-5.684-18.897-5.656-18.887-5.635-18.865L-5.472-18.702C-5.069-18.766-4.508-18.769-3.885-18.505-3.405-18.302-3.095-18.016-3.044-17.967-3.019-17.99-2.996-18.02-2.992-18.038-2.993-18.106-3.015-18.164-3.04-18.231-3.098-18.383-3.185-18.613-2.897-18.9-2.759-19.038-2.585-19.11-2.393-19.11-2.324-19.11-2.254-19.101-2.182-19.082-1.979-19.031-1.773-18.908-1.601-18.736L-1.412-18.548C-1.06-18.195-.858-17.639-1.247-17.25-1.535-16.962-1.764-17.05-1.916-17.108-1.983-17.133-2.041-17.155-2.118-17.155-2.131-17.151-2.159-17.129-2.181-17.104-2.168-17.091-1.858-16.772-1.643-16.262-1.379-15.64-1.382-15.079-1.446-14.676L-1.283-14.513C-1.122-14.352-1.111-14.108-1.231-13.926-1.248-13.9-1.26-13.871-1.282-13.848L-1.753-13.378C-1.798-13.333-1.851-13.299-1.908-13.275-1.942-13.261-1.979-13.259-2.016-13.254-2.039-13.25-2.061-13.24-2.085-13.24-2.102-13.24-2.117-13.248-2.134-13.25-2.228-13.26-2.319-13.296-2.394-13.362-2.399-13.366-2.404-13.368-2.409-13.372-2.723-13.077-3.368-12.471-4.163-11.722-4.158-11.717-4.157-11.71-4.152-11.705-4.074-11.619-4.029-11.509-4.029-11.394-4.029-11.39-4.027-11.387-4.027-11.384-4.028-11.37-4.035-11.357-4.036-11.343-4.049-11.232-4.094-11.126-4.176-11.049L-4.21-11.018-4.663-10.595C-4.678-10.581-4.697-10.575-4.713-10.563-4.897-10.43-5.15-10.44-5.316-10.606L-5.332-10.622C-5.969-10.022-6.639-9.391-7.276-8.791-7.457-8.993-7.611-9.164-7.722-9.29-7.662-9.579-7.739-9.89-7.957-10.122L-8.412-10.609C-8.558-10.765-8.756-10.863-8.967-10.893-9.475-11.429-10.246-12.247-11.096-13.149M-6.438-18.062-2.085-13.71-1.615-14.18-5.967-18.533ZM-9.21-15.164-4.983-10.937-4.497-11.392-8.755-15.651Z" fill="#231f20"/>
<path transform="matrix(1,0,0,-1,126.812,48.353204)" d="M0 0C.02 .797-.468 1.559-1.45 2.265-2.176 2.789-2.884 3.005-3.494 2.892-3.968 2.808-4.35 2.536-4.6 2.104-5.23 1.016-4.471 .021-3.739-.725-3.739-.725-3.608-.855-3.59-.865-2.587-1.877-2.682-2.264-2.852-2.551-2.937-2.704-3.065-2.792-3.246-2.821-3.618-2.893-4.136-2.715-4.665-2.334-5.35-1.841-5.701-1.372-5.707-.944-5.706-.795-5.756-.684-5.856-.612-5.878-.596-5.937-.553-6.01-.552L-6.35-.514H-6.351C-6.519-.514-6.66-.632-6.688-.812-6.739-1.626-6.253-2.408-5.243-3.135-4.611-3.591-3.991-3.825-3.43-3.825-3.306-3.825-3.185-3.814-3.068-3.791-2.603-3.708-2.233-3.448-2-3.039-1.292-1.815-2.386-.695-2.855-.215-2.855-.215-2.964-.105-2.999-.069-4.007 .935-3.912 1.322-3.743 1.607-3.64 1.785-3.501 1.888-3.316 1.923-2.978 1.99-2.518 1.829-2.022 1.472-1.55 1.131-.988 .609-.989 .054L-.981 .001C-.955-.086-.91-.151-.847-.196-.819-.217-.76-.26-.681-.262L-.359-.291C-.193-.307-.04-.192 0 0M-4.389 4.191C-4.392 4.248-4.417 4.354-4.555 4.433L-4.868 4.61C-5.004 4.687-5.161 4.673-5.304 4.571L-8.908 1.899-8.591 5.174C-8.568 5.283-8.631 5.414-8.733 5.471-8.839 5.531-8.971 5.52-9.058 5.45L-11.707 3.486-11.271 7.96C-11.267 8.202-11.391 8.309-11.466 8.351L-11.778 8.528C-11.916 8.607-12.021 8.574-12.071 8.546-12.204 8.475-12.222 8.32-12.223 8.296L-12.913 1.925C-12.945 1.811-12.886 1.681-12.773 1.617-12.689 1.57-12.587 1.567-12.489 1.61L-9.725 3.723-10.114 .339C-10.148 .214-10.07 .084-9.975 .031-9.931 .005-9.881-.008-9.83-.008-9.784-.008-9.736 .003-9.689 .023L-4.531 3.927C-4.506 3.945-4.382 4.04-4.389 4.191M-14.71 2.84C-14.636 2.892-14.597 2.975-14.602 3.066L-14.933 9.709-14.935 9.734C-14.954 9.828-15.013 9.903-15.097 9.939-15.183 9.976-15.279 9.968-15.379 9.901L-20.408 5.591C-20.492 5.525-20.533 5.433-20.521 5.338-20.509 5.245-20.441 5.159-20.342 5.116L-19.939 4.943C-19.82 4.891-19.685 4.912-19.586 4.996L-18.652 5.779C-18.615 5.814-18.59 5.832-18.503 5.795L-15.765 4.617C-15.681 4.581-15.674 4.543-15.674 4.486L-15.595 3.258C-15.58 3.14-15.502 3.034-15.397 2.989L-14.985 2.811C-14.95 2.796-14.913 2.789-14.874 2.789-14.816 2.789-14.758 2.806-14.71 2.84M-15.825 8.256-15.735 5.67-17.759 6.542ZM-19.466 10.719C-19.685 11.485-20.378 12.066-21.528 12.448-22.377 12.729-23.117 12.724-23.666 12.433-24.093 12.21-24.376 11.836-24.484 11.35-24.759 10.124-23.738 9.401-22.816 8.908-22.816 8.908-22.652 8.823-22.633 8.82-21.372 8.155-21.347 7.757-21.423 7.432-21.459 7.261-21.554 7.138-21.718 7.056-22.052 6.876-22.598 6.89-23.218 7.096-24.02 7.362-24.494 7.704-24.628 8.111-24.671 8.252-24.753 8.344-24.87 8.383-24.895 8.391-24.964 8.415-25.035 8.394L-25.37 8.328C-25.53 8.278-25.63 8.124-25.604 7.943-25.408 7.151-24.71 6.55-23.529 6.158-23.091 6.013-22.681 5.941-22.307 5.941-21.912 5.941-21.558 6.022-21.258 6.184-20.838 6.403-20.564 6.762-20.464 7.221-20.154 8.602-21.534 9.342-22.124 9.659-22.125 9.659-22.262 9.731-22.306 9.757-23.568 10.412-23.594 10.81-23.518 11.133-23.473 11.333-23.371 11.473-23.205 11.562-22.902 11.726-22.416 11.71-21.835 11.518-21.283 11.335-20.591 11.006-20.426 10.475L-20.4 10.424C-20.368 10.377-20.313 10.312-20.215 10.279-20.179 10.267-20.113 10.244-20.037 10.266L-19.722 10.335C-19.562 10.366-19.445 10.524-19.466 10.719M-29.671 8.311-28.534 14.047C-28.499 14.227-28.616 14.402-28.795 14.437L-29.106 14.499C-29.284 14.533-29.459 14.417-29.495 14.238L-30.34 9.97-32.562 14.936C-32.598 15.03-32.666 15.204-32.864 15.244L-33.232 15.316C-33.396 15.351-33.555 15.248-33.613 15.062L-34.749 9.326C-34.767 9.239-34.75 9.151-34.701 9.078-34.652 9.005-34.575 8.953-34.489 8.936L-34.179 8.875C-34.092 8.857-34.003 8.875-33.93 8.923-33.857 8.972-33.806 9.049-33.789 9.136L-32.945 13.393-30.728 8.42C-30.674 8.302-30.589 8.163-30.42 8.13L-30.059 8.059C-30.037 8.054-30.015 8.052-29.993 8.052-29.838 8.052-29.701 8.158-29.671 8.311M-35.899 13.415C-35.842 14.016-36.023 14.604-36.41 15.07-36.796 15.536-37.337 15.823-37.935 15.88L-40.371 16.112C-40.546 16.129-40.715 15.992-40.732 15.813L-41.286 9.999C-41.302 9.821-41.165 9.655-40.987 9.638L-40.673 9.609C-40.584 9.599-40.493 9.627-40.424 9.685-40.359 9.738-40.32 9.811-40.313 9.889L-40.154 11.549-38.541 11.386C-38.378 10.257-37.505 9.382-36.359 9.206-36.349 9.206-36.338 9.205-36.328 9.205-36.159 9.205-36.014 9.334-35.998 9.506L-35.968 9.82C-35.96 9.905-35.988 9.993-36.044 10.061-36.098 10.127-36.176 10.17-36.258 10.18-36.884 10.296-37.414 10.818-37.567 11.448-36.642 11.716-35.987 12.489-35.899 13.415M-40.077 12.535V12.533L-40.094 12.353ZM-38.028 14.905C-37.33 14.839-36.815 14.212-36.883 13.509-36.949 12.81-37.569 12.296-38.27 12.362L-40.06 12.533-39.81 15.075ZM-43.128 10.637C-42.495 11.263-42.143 12.097-42.137 12.986-42.132 13.877-42.473 14.718-43.099 15.353-43.724 15.987-44.557 16.34-45.446 16.345H-45.468C-47.299 16.345-48.795 14.861-48.807 13.028-48.812 12.139-48.47 11.3-47.844 10.667-47.217 10.033-46.381 9.681-45.489 9.676H-45.467C-44.587 9.676-43.757 10.017-43.128 10.637M-45.453 15.366C-44.156 15.358-43.108 14.293-43.116 12.991-43.12 12.366-43.369 11.778-43.817 11.335-44.266 10.893-44.862 10.654-45.482 10.655-46.784 10.663-47.836 11.725-47.828 13.021-47.819 14.318-46.762 15.366-45.468 15.366ZM-50.608 12.987C-50.335 13.364-50.209 13.815-50.252 14.265-50.35 15.289-51.261 16.042-52.287 15.946L-55.119 15.675C-55.28 15.64-55.395 15.501-55.396 15.316L-54.839 9.475C-54.805 9.311-54.664 9.195-54.504 9.195-54.493 9.195-54.483 9.196-54.472 9.197L-51.382 9.491C-50.885 9.538-50.436 9.778-50.116 10.166-49.796 10.555-49.646 11.044-49.694 11.544-49.751 12.147-50.091 12.68-50.608 12.987M-51.55 14.766C-51.37 14.617-51.258 14.406-51.236 14.171-51.213 13.937-51.283 13.709-51.432 13.528-51.581 13.348-51.792 13.236-52.027 13.214L-54.184 13.008-54.351 14.757-52.193 14.962C-51.961 14.984-51.731 14.915-51.55 14.766M-54.091 12.025-51.645 12.258C-51.152 12.304-50.715 11.942-50.668 11.451-50.622 10.959-50.984 10.521-51.475 10.474L-53.921 10.241ZM-58.617 8.636C-58.57 8.711-58.553 8.801-58.572 8.884L-58.641 9.192C-58.66 9.279-58.711 9.353-58.785 9.4-58.859 9.447-58.951 9.462-59.037 9.444L-61.899 8.776-62.299 10.557-59.431 11.2C-59.256 11.24-59.141 11.421-59.18 11.597L-59.249 11.905C-59.276 12.027-59.345 12.09-59.399 12.121-59.513 12.189-59.633 12.16-59.645 12.156L-62.51 11.497-62.923 13.23-60.031 13.878C-59.856 13.918-59.742 14.1-59.781 14.275L-59.85 14.583C-59.89 14.761-60.068 14.872-60.246 14.834L-63.746 14.049C-63.929 14.007-64.037 13.837-63.996 13.653L-62.719 7.955C-62.7 7.869-62.646 7.793-62.572 7.746-62.519 7.713-62.459 7.695-62.397 7.695-62.372 7.695-62.347 7.698-62.322 7.704L-58.823 8.488C-58.739 8.507-58.664 8.561-58.617 8.636M-64.055 8.273-66.917 7.402-68.43 12.378C-68.456 12.463-68.514 12.535-68.588 12.575-68.66 12.613-68.744 12.621-68.826 12.596L-69.177 12.488C-69.253 12.465-69.316 12.414-69.354 12.343-69.394 12.267-69.402 12.177-69.376 12.091L-67.673 6.495C-67.63 6.354-67.495 6.261-67.353 6.261-67.322 6.261-67.29 6.266-67.26 6.275L-63.761 7.339C-63.591 7.391-63.496 7.576-63.549 7.75L-63.641 8.052C-63.696 8.233-63.874 8.329-64.055 8.273M-64.002 8.098V8.098ZM-70.45 11.393-70.564 11.687C-70.625 11.844-70.801 11.928-70.973 11.883L-75.31 10.203C-75.473 10.121-75.546 9.944-75.483 9.782L-75.369 9.488C-75.337 9.403-75.275 9.337-75.195 9.301-75.116 9.266-75.026 9.265-74.94 9.298L-73.255 9.977-71.374 5.12C-71.321 4.983-71.196 4.9-71.062 4.9-71.022 4.9-70.982 4.907-70.942 4.923L-70.648 5.036C-70.49 5.097-70.406 5.274-70.458 5.466L-72.333 10.307-70.639 10.963C-70.469 11.029-70.384 11.221-70.45 11.393M-75.85 9.246-75.985 9.531C-76.057 9.683-76.239 9.754-76.408 9.696L-80.611 7.703C-80.767 7.608-80.826 7.426-80.751 7.27L-80.616 6.985C-80.577 6.902-80.51 6.841-80.428 6.812-80.346 6.783-80.256 6.788-80.174 6.827L-78.544 7.628-76.312 2.922C-76.252 2.797-76.133 2.725-76.008 2.725-75.96 2.725-75.912 2.735-75.866 2.757L-75.58 2.892C-75.428 2.965-75.357 3.146-75.423 3.334L-77.649 8.025-76.007 8.804C-75.842 8.882-75.771 9.081-75.85 9.246M-77.483 2.476-83.021 6.159-83.042 6.171C-83.127 6.214-83.223 6.21-83.305 6.162-83.386 6.115-83.435 6.033-83.44 5.914L-82.964-.691C-82.961-.799-82.911-.887-82.828-.933-82.789-.954-82.745-.965-82.7-.965-82.647-.965-82.593-.95-82.543-.921L-82.164-.7C-82.053-.635-81.989-.514-81.997-.385L-82.072 .832C-82.078 .883-82.078 .914-81.996 .961L-79.421 2.462C-79.342 2.509-79.307 2.491-79.262 2.458L-78.225 1.79C-78.121 1.734-77.99 1.734-77.893 1.791L-77.505 2.016C-77.422 2.065-77.367 2.159-77.365 2.254-77.363 2.345-77.406 2.426-77.483 2.476M-80.25 3.113-82.154 2.004-82.382 4.578ZM-84.361 .139C-84.709 .635-85.268 .93-85.869 .941-85.819 1.404-85.933 1.858-86.192 2.228-86.479 2.635-86.907 2.907-87.398 2.993-87.889 3.08-88.384 2.969-88.792 2.683L-91.118 1.048C-91.243 .939-91.274 .761-91.183 .598L-87.81-4.204C-87.74-4.283-87.643-4.324-87.546-4.324-87.479-4.324-87.412-4.305-87.354-4.264L-84.813-2.48C-83.967-1.886-83.764-.711-84.361 .139M-87.215 .437-88.989-.809-89.998 .629-88.224 1.874C-88.032 2.009-87.799 2.062-87.568 2.021-87.337 1.981-87.136 1.853-87.001 1.66-86.866 1.467-86.813 1.234-86.854 1.004-86.894 .773-87.022 .572-87.215 .437M-85.162-.424C-85.025-.619-84.973-.857-85.016-1.095-85.058-1.331-85.187-1.536-85.381-1.672L-87.391-3.084-88.421-1.617-86.41-.206C-86.006 .078-85.446-.02-85.162-.424" fill="#231f20"/>
</g>
</svg>
